<?xml version="1.0" encoding="utf-8"?>
<!-- Generator: Adobe Illustrator 27.1.1, SVG Export Plug-In . SVG Version: 6.00 Build 0)  -->
<svg version="1.1" id="Layer_1" xmlns="http://www.w3.org/2000/svg" xmlns:xlink="http://www.w3.org/1999/xlink" x="0px" y="0px"
	 viewBox="0 0 1600 165.49" style="enable-background:new 0 0 1600 165.49;" xml:space="preserve">
<style type="text/css">
	.st0{fill:#0A5E73;}
	.st1{fill:none;stroke:#0A5E73;stroke-width:4.8427;stroke-miterlimit:10;}
	.st2{fill:#CA8901;}
	.st3{fill:#FFFFFF;}
</style>
<g>
	<path class="st3" d="M1600,64.11c0,33.79,0,67.58,0,101.38c-533.33,0-1066.67,0-1600,0c0-32.5,0-65,0-98.93
		c16.54,0.94,32.29,1.46,47.96,2.92c6.52,0.61,12.49,1.78,17.63-3.79c1.13-1.22,3.24-1.9,4.96-2.04c5.1-0.43,8.35-3.39,11.58-7.18
		c2.4-2.82,5.6-5.68,8.97-6.73c15.23-4.78,30.72-5.68,45.28,2.02c10.89,5.76,22.1,7.98,34.14,7.74c10.28-0.21,20.63,0.94,30.86,0.17
		c11.72-0.88,23.31-4.28,35.02-4.71c22.6-0.82,45.24-0.42,67.87-0.26c3.7,0.03,6.27-0.57,8.36-4.01c3.17-5.2,7.71-8.43,13.97-8.62
		c18.91-0.59,37.59,0.69,55.95,5.99c3.03,0.88,6.71-0.3,10.03-0.9c4.37-0.78,8.64-2.32,13.03-2.83c8.38-0.97,16.95-0.73,25.2-2.33
		c8.29-1.61,16.22-5.13,24.43-7.29c8.51-2.24,15.14-7,20.05-14.36c3.99-5.99,9.41-8.19,16.3-7.97c7.14,0.23,14.3-0.08,21.45-0.25
		c26.78-0.63,53.56-1.83,80.33-1.75c13.65,0.04,27.58,2.06,39.1,10.64c8.53,6.36,17.44,9.69,27.88,9.29
		c6.11-0.24,11.07,2.29,15.69,6.65c2.54,2.39,6.62,3.66,10.17,4.14c5.87,0.81,11.96,0.04,17.81,0.96c4.87,0.76,9.25,0.65,13.49-1.89
		c9.76-5.85,19.62-5.31,29.74-0.94c7.06,3.05,14.13,6.3,21.5,8.27c6.77,1.82,12.94,4.36,18.34,8.87c3.67,3.07,7.04,2.86,10.88,0.06
		c3.78-2.74,7.79-5.4,12.06-7.12c9.28-3.74,18.91-6.57,28.19-10.31c10.05-4.05,19.61-4.37,29.35,1.05c2.92,1.63,6.63,2.43,9.98,2.43
		c7.26,0,14.55-0.52,21.77-1.33c2.97-0.33,6.69-1.09,8.55-3.13c5.68-6.24,12.46-8.16,20.31-7.86c7.97,0.3,15.21-2.16,21.48-7.11
		c6.8-5.36,14.4-8.47,22.69-10.19c20.11-4.18,40.42-3.55,60.74-2.81c20.45,0.74,40.9,1.71,61.35,2.29
		c6.32,0.18,11.42,2.15,14.97,7.62c5.73,8.83,13.84,13.67,23.77,15.63c1.96,0.39,3.88,0.97,5.79,1.57
		c12.06,3.8,23.83,8.87,36.97,7.13c6.37-0.85,12.48,0.64,18.35,3.73c2.1,1.1,5.32,0.95,7.72,0.25c17.5-5.09,35.31-6.57,53.42-6.29
		c7.81,0.12,13.3,3.02,17.74,9.44c1.2,1.73,4.02,3.2,6.1,3.19c18.97-0.01,37.95-1,56.89-0.41c14.25,0.45,28.44,2.81,42.66,4.3
		c7.08,0.74,14.15,1.99,21.23,2.03c8.81,0.04,17.66-0.6,26.42-1.62c5.03-0.58,10.36-1.59,14.78-3.95
		c12.04-6.42,24.53-9.91,38.03-8.28c7.53,0.91,16,0.72,21.43,6.99c4.62,5.34,8.78,10.19,16.19,10.52c1.02,0.05,2.19,0.96,2.95,1.8
		c4.3,4.78,9.53,4.57,15.24,3.89c9.39-1.11,18.84-1.72,28.28-2.26C1575.63,66.91,1588.06,68.38,1600,64.11z"/>
</g>
</svg>
