<?xml version="1.0" encoding="utf-8"?>
<!-- Generator: Adobe Illustrator 27.1.1, SVG Export Plug-In . SVG Version: 6.00 Build 0)  -->
<svg version="1.1" id="Layer_1" xmlns="http://www.w3.org/2000/svg" xmlns:xlink="http://www.w3.org/1999/xlink" x="0px" y="0px"
	 viewBox="0 0 511.63 543.48" style="enable-background:new 0 0 511.63 543.48;" xml:space="preserve">
<style type="text/css">
	.st0{fill:#0A5E73;}
	.st1{fill:none;stroke:#0A5E73;stroke-width:4.8427;stroke-miterlimit:10;}
	.st2{fill:#CA8901;}
	.st3{fill:#FFFFFF;}
</style>
<g>
	<path class="st3" d="M505.25,271.81c0,49,0.06,98-0.02,147c-0.09,57.63-38.57,105.35-94.85,117.33
		c-7.81,1.66-15.95,2.44-23.94,2.45c-87.07,0.17-174.14,0.18-261.2,0.08C59.62,538.6,6.67,486,6.51,420.28
		c-0.25-98.99-0.25-197.97,0-296.96C6.67,58,58.98,5.32,124.26,5.03c87.72-0.39,175.45-0.39,263.18,0
		c65.27,0.29,117.45,52.97,117.76,118.3C505.44,172.83,505.24,222.32,505.25,271.81z M498.35,272.3c0-49.49,0.1-98.97-0.03-148.46
		c-0.16-61.63-49.39-111.65-110.91-111.91c-87.71-0.37-175.43-0.37-263.14,0C62.94,12.18,13.57,61.9,13.41,123.36
		c-0.26,98.97-0.27,197.94,0,296.91c0.17,61.83,50.12,111.41,111.85,111.49c87.06,0.11,174.11,0.09,261.17-0.07
		c7.66-0.01,15.48-0.78,22.96-2.4c52.72-11.43,88.89-56.51,88.95-110.51C498.39,369.95,498.35,321.13,498.35,272.3z"/>
	<path class="st3" d="M479.78,271.72c0,40.81,0.05,81.62-0.01,122.43c-0.09,56-37.88,103.05-92.56,114.86
		c-8.07,1.74-16.49,2.54-24.76,2.56c-71.45,0.2-142.89,0.2-214.34,0.09c-63.36-0.1-115.76-51.85-116.03-115.2
		c-0.35-83.12-0.35-166.24,0-249.36C32.34,83.74,84.69,31.96,148.04,31.84c71.61-0.13,143.23-0.15,214.84,0.01
		c64.89,0.14,116.69,52.05,116.87,116.94C479.87,189.77,479.78,230.74,479.78,271.72z"/>
</g>
</svg>
