<?xml version="1.0" encoding="utf-8"?>
<!-- Generator: Adobe Illustrator 27.1.1, SVG Export Plug-In . SVG Version: 6.00 Build 0)  -->
<svg version="1.1" id="Layer_1" xmlns="http://www.w3.org/2000/svg" xmlns:xlink="http://www.w3.org/1999/xlink" x="0px" y="0px"
	 viewBox="0 0 944.17 466.1" style="enable-background:new 0 0 944.17 466.1;" xml:space="preserve">
<style type="text/css">
	.st0{fill:#0A5E73;}
	.st1{fill:none;stroke:#0A5E73;stroke-width:4.8427;stroke-miterlimit:10;}
	.st2{fill:#CA8901;}
	.st3{fill:#FFFFFF;}
	.st4{fill:none;}
</style>
<g>
	<path class="st3" d="M944.17,33.05c0,134.33,0,268.67,0,403c-2.47-0.17-4.95-0.48-7.42-0.48c-275.06-0.02-550.12-0.01-825.18-0.08
		c-5.97,0-12.05-0.3-17.89-1.43c-30.89-6-51.29-31.09-51.34-63.53c-0.14-90.31-0.11-180.63,0-270.94
		c0.02-18.14,5.44-34.37,18.62-47.52c13.76-13.73,30.77-18.51,49.61-18.51c275.39,0,550.78,0,826.18-0.02
		C939.22,33.53,941.7,33.22,944.17,33.05z"/>
	<path class="st3" d="M944.17,14.05c-1.97-0.17-3.95-0.48-5.92-0.48c-279.94-0.02-559.89-0.02-839.83-0.01
		c-39.04,0-74.75,30.43-81.03,69.1c-0.72,4.41-1.05,8.93-1.05,13.4c-0.06,91.33-0.05,182.66-0.04,273.99
		c0.01,39.27,30.01,74.82,68.72,81.35c4.24,0.72,8.6,1.09,12.9,1.09c280.11,0.05,560.22,0.05,840.33,0.03
		c1.97,0,3.95-0.31,5.92-0.48c0,3.33,0,6.67,0,10c-2.47-0.17-4.95-0.48-7.42-0.48c-276.57-0.02-553.14,0-829.71-0.06
		c-15.07,0-29.99-1.68-43.81-8.28C25.89,435.38,7.6,405.08,7.4,364.28c-0.41-82.32-0.15-164.64-0.09-246.96
		c0.01-8.65,0.39-17.3,0.84-25.94c1.2-22.99,10.5-42.48,26.45-58.75c19.41-19.8,43.63-28.05,70.93-28.06
		c277.07-0.03,554.14-0.02,831.21-0.04c2.47,0,4.95-0.31,7.42-0.48C944.17,7.38,944.17,10.72,944.17,14.05z"/>
</g>
</svg>
