<?xml version="1.0" encoding="utf-8"?>
<!-- Generator: Adobe Illustrator 27.1.1, SVG Export Plug-In . SVG Version: 6.00 Build 0)  -->
<svg version="1.1" id="Layer_1" xmlns="http://www.w3.org/2000/svg" xmlns:xlink="http://www.w3.org/1999/xlink" x="0px" y="0px"
	 viewBox="0 0 607.62 461.96" style="enable-background:new 0 0 607.62 461.96;" xml:space="preserve">
<style type="text/css">
	.st0{fill:#0A5E73;}
	.st1{fill:none;stroke:#0A5E73;stroke-width:4.8427;stroke-miterlimit:10;}
	.st2{fill:#CA8901;}
	.st3{fill:#FFFFFF;}
	.st4{fill:none;}
</style>
<g>
	<path class="st4" d="M504.03,12.02c-95.34-0.02-190.67-0.02-286.01,0c-48.94,0.01-85.95,36.75-85.99,85.59
		c-0.08,88.95-0.05,177.91,0.04,266.86c0.01,5.63,0.39,11.36,1.48,16.87c8.09,40.72,41.99,68.48,83.63,68.56
		c47.92,0.09,95.84,0.02,143.76,0.02c47.75,0,95.5,0.05,143.26-0.01c48.64-0.06,85.66-36.79,85.73-85.35
		c0.12-89.12,0.13-178.24,0-267.36C589.85,48.7,552.71,12.03,504.03,12.02z M556.87,345.07c-0.02,42.99-31.91,74.83-74.97,74.85
		c-80.31,0.04-160.62,0.04-240.93,0c-43.03-0.02-74.87-31.9-74.89-74.92c-0.03-76.46-0.04-152.92,0-229.38
		c0.02-42.64,32.04-74.57,74.71-74.59c40.24-0.02,80.48,0,120.72,0c40.07,0,80.14-0.01,120.21,0c43.12,0.01,75.12,31.76,75.15,74.67
		C556.92,192.15,556.91,268.61,556.87,345.07z"/>
	<path class="st3" d="M599.91,96.6c-0.01-5.63-0.39-11.36-1.43-16.89c-8.76-46.29-46.92-77.65-94.3-77.68
		c-39.58-0.02-79.15,0-118.73,0c-56.61,0-113.22-0.12-169.83,0.04C168.31,2.2,128.4,37.66,122.88,84.3
		c-0.91,7.7-0.9,15.51-1.34,23.81c-40.57,0-81.03,0-121.42,0c0,18.93,0,37.31,0,56.05c40.74,0,81.09,0,121.53,0
		c0,44.74,0,89.11,0,134.02c-40.79,0-81.26,0-121.66,0c0,18.81,0,37.07,0,55.69c40.62,0,80.96,0,121.98,0c0,4.19-0.01,7.67,0,11.14
		c0.15,53.25,41.55,94.79,94.98,94.86c96.02,0.13,192.04,0.13,288.05,0c53.43-0.08,94.88-41.57,94.93-94.88
		C600.04,275.53,600,186.06,599.91,96.6z M589.92,364.56c-0.07,48.55-37.09,85.29-85.73,85.35c-47.75,0.06-95.5,0.01-143.26,0.01
		c-47.92,0-95.84,0.07-143.76-0.02c-41.64-0.07-75.54-27.84-83.63-68.56c-1.1-5.51-1.48-11.24-1.48-16.87
		c-0.09-88.95-0.12-177.91-0.04-266.86c0.05-48.84,37.06-85.58,85.99-85.59c95.34-0.02,190.67-0.02,286.01,0
		c48.68,0.01,85.82,36.68,85.89,85.18C590.05,186.32,590.04,275.44,589.92,364.56z"/>
	<path class="st3" d="M481.73,41.02c-40.07-0.01-80.14,0-120.21,0c-40.24,0-80.48-0.02-120.72,0
		c-42.67,0.02-74.68,31.95-74.71,74.59c-0.04,76.46-0.03,152.92,0,229.38c0.02,43.02,31.86,74.9,74.89,74.92
		c80.31,0.04,160.62,0.04,240.93,0c43.06-0.02,74.95-31.86,74.97-74.85c0.04-76.46,0.05-152.92,0-229.38
		C556.84,72.78,524.84,41.03,481.73,41.02z"/>
</g>
</svg>
