<?xml version="1.0" encoding="utf-8"?>
<!-- Generator: Adobe Illustrator 27.1.1, SVG Export Plug-In . SVG Version: 6.00 Build 0)  -->
<svg version="1.1"
	 id="svg2" xmlns:ns1="http://sozi.baierouge.fr" xmlns:svg="http://www.w3.org/2000/svg" xmlns:dc="http://purl.org/dc/elements/1.1/" xmlns:cc="http://creativecommons.org/ns#" xmlns:sodipodi="http://sodipodi.sourceforge.net/DTD/sodipodi-0.dtd" xmlns:rdf="http://www.w3.org/1999/02/22-rdf-syntax-ns#" xmlns:inkscape="http://www.inkscape.org/namespaces/inkscape"
	 xmlns="http://www.w3.org/2000/svg" xmlns:xlink="http://www.w3.org/1999/xlink" x="0px" y="0px" viewBox="0 0 173.23 156.77"
	 style="enable-background:new 0 0 173.23 156.77;" xml:space="preserve">
<style type="text/css">
	.st0{fill:#FFFFFF;}
	.st1{fill:#FA9D02;}
</style>
<sodipodi:namedview  bordercolor="#666666" borderopacity="1" fit-margin-bottom="0" fit-margin-left="0" fit-margin-right="0" fit-margin-top="0" gridtolerance="10" guidetolerance="10" id="namedview679" inkscape:bbox-nodes="true" inkscape:bbox-paths="true" inkscape:current-layer="svg2" inkscape:cx="-105.04499" inkscape:cy="207.11817" inkscape:object-nodes="true" inkscape:object-paths="true" inkscape:pageopacity="0" inkscape:pageshadow="2" inkscape:snap-bbox="true" inkscape:snap-bbox-edge-midpoints="true" inkscape:snap-bbox-midpoints="true" inkscape:snap-center="true" inkscape:snap-intersection-paths="true" inkscape:snap-midpoints="true" inkscape:snap-object-midpoints="true" inkscape:snap-page="true" inkscape:snap-smooth-nodes="true" inkscape:window-height="1018" inkscape:window-maximized="1" inkscape:window-width="1920" inkscape:window-x="-8" inkscape:window-y="-8" inkscape:zoom="1.1919192" objecttolerance="10" pagecolor="#ffffff" showgrid="false">
	</sodipodi:namedview>
<g>
	<rect x="29.15" y="17.34" class="st0" width="131.02" height="124.11"/>
	<path class="st1" d="M86.24,155.34c-19,0-38-0.05-57,0.02c-13.69,0.04-27.56-13.89-27.53-27.58c0.07-33.13-0.01-66.27,0.04-99.4
		C1.76,16.28,13.78,3.59,25.88,2.53c24.91-2.18,49.87-0.48,74.8-0.94c12.66-0.23,25.33-0.04,38-0.04
		c19.72,0.01,33.02,13.18,33.01,33c-0.02,29.3-0.02,58.61,0,87.91c0.01,12.45-4.95,22.22-15.55,28.92c-3.91,2.47-8.18,4-12.91,4
		c-19-0.02-38-0.01-57-0.01C86.24,155.36,86.24,155.35,86.24,155.34z M93.83,141.45c12.16,0,24.33-0.32,36.48,0.08
		c16.71,0.55,28.28-11.9,28.38-28.29c0.14-22.47,0.05-44.93,0.02-67.4c0-3.78-0.57-7.52-1.95-11.03
		c-4.53-11.53-13.58-17.04-25.5-17.21c-24.99-0.34-49.98-0.35-74.97,0c-14.14,0.2-25.89,10.59-25.73,25.77
		c0.25,24.46,0.27,48.93,0.01,73.39c-0.14,12.76,12.37,25.2,25.26,24.77C68.5,141.12,81.17,141.44,93.83,141.45z"/>
	<path id="use13-7" inkscape:connector-curvature="0" d="M49.52,34.33v3.61v3.61v3.61v3.61v3.61v3.61v3.61h3.61h3.61h3.61h3.61h3.61
		h3.61h3.61v-3.61v-3.61v-3.61v-3.61v-3.61v-3.61v-3.61h-3.61h-3.61h-3.61h-3.61h-3.61h-3.61H49.52z M82.02,34.33v3.61h-3.61v3.61
		h3.61v3.61h-3.61v3.61h3.61h3.61v-3.61h3.61v3.61h3.61v-3.61v-3.61h3.61v-3.61h-3.61h-3.61v3.61h-3.61v-3.61v-3.61H82.02z
		 M96.46,37.94h3.61v-3.61h-3.61V37.94z M92.85,48.77v3.61h3.61v-3.61H92.85z M96.46,48.77h3.61v3.61h3.61v-3.61v-3.61h3.61h3.61
		v-3.61h-3.61v-3.61h-3.61v3.61h-3.61v3.61h-3.61V48.77z M107.3,37.94h3.61v-3.61h-3.61V37.94z M103.69,52.38v3.61h3.61v3.61h3.61
		v-3.61v-3.61v-3.61h-3.61v3.61H103.69z M103.69,55.99h-3.61v3.61h3.61V55.99z M89.24,48.77h-3.61v3.61v3.61v3.61h3.61v-3.61v-3.61
		V48.77z M114.52,34.33v3.61v3.61v3.61v3.61v3.61v3.61v3.61h3.61h3.61h3.61h3.61h3.61h3.61h3.61v-3.61v-3.61v-3.61v-3.61v-3.61
		v-3.61v-3.61h-3.61h-3.61h-3.61h-3.61h-3.61h-3.61H114.52z M53.13,37.94h3.61h3.61h3.61h3.61h3.61v3.61v3.61v3.61v3.61v3.61h-3.61
		h-3.61h-3.61h-3.61h-3.61v-3.61v-3.61v-3.61v-3.61V37.94z M118.13,37.94h3.61h3.61h3.61h3.61h3.61v3.61v3.61v3.61v3.61v3.61h-3.61
		h-3.61h-3.61h-3.61h-3.61v-3.61v-3.61v-3.61v-3.61V37.94z M56.74,41.55v3.61v3.61v3.61h3.61h3.61h3.61v-3.61v-3.61v-3.61h-3.61
		h-3.61H56.74z M121.74,41.55v3.61v3.61v3.61h3.61h3.61h3.61v-3.61v-3.61v-3.61h-3.61h-3.61H121.74z M78.41,52.38v3.61v3.61h3.61
		v-3.61v-3.61H78.41z M92.85,55.99v3.61v3.61v3.61h3.61h3.61h3.61h3.61v-3.61h-3.61h-3.61h-3.61V59.6v-3.61H92.85z M107.3,66.83
		v3.61h3.61v3.61h-3.61v3.61h3.61h3.61v-3.61h3.61v3.61h-3.61v3.61h3.61v3.61v3.61v3.61h-3.61h-3.61v-3.61h3.61v-3.61h-3.61v-3.61
		h-3.61v3.61h-3.61v3.61v3.61h-3.61h-3.61h-3.61v3.61h3.61h3.61v3.61v3.61h3.61v-3.61h3.61v3.61v3.61h-3.61v3.61v3.61h-3.61v-3.61
		v-3.61h-3.61v3.61v3.61v3.61h3.61h3.61h3.61v-3.61v-3.61h3.61v3.61h3.61h3.61v3.61v3.61v3.61h3.61h3.61h3.61h3.61h3.61h3.61v-3.61
		v-3.61v-3.61v-3.61h-3.61h-3.61v-3.61h-3.61v-3.61h3.61h3.61h3.61v-3.61h-3.61h-3.61v-3.61V92.1h-3.61v3.61h-3.61V92.1h-3.61v-3.61
		h3.61v3.61h3.61v-3.61v-3.61v-3.61h-3.61v3.61h-3.61v-3.61h3.61v-3.61h-3.61v-3.61h3.61h3.61v-3.61h-3.61h-3.61v-3.61v-3.61h-3.61
		v3.61v3.61h-3.61v-3.61v-3.61h-3.61v3.61H107.3z M128.96,81.27h3.61v3.61v3.61h3.61v3.61h3.61v-3.61v-3.61h-3.61v-3.61h3.61v-3.61
		v-3.61v-3.61h-3.61v-3.61v-3.61h-3.61v3.61v3.61v3.61h3.61v3.61h-3.61h-3.61V81.27z M107.3,117.38v3.61h3.61v3.61h3.61v-3.61v-3.61
		h-3.61H107.3z M96.46,106.55v-3.61v-3.61h-3.61v3.61h-3.61v-3.61h-3.61v3.61v3.61h3.61h3.61H96.46z M85.63,106.55h-3.61h-3.61v3.61
		v3.61v3.61v3.61v3.61h3.61h3.61h3.61h3.61h3.61h3.61h3.61v-3.61h-3.61h-3.61h-3.61v-3.61h-3.61v3.61h-3.61h-3.61v-3.61h3.61v-3.61
		v-3.61V106.55z M85.63,99.33v-3.61V92.1h-3.61v3.61h-3.61v3.61v3.61h3.61v-3.61H85.63z M89.24,99.33h3.61v-3.61h-3.61V99.33z
		 M92.85,92.1v-3.61h-3.61v3.61H92.85z M89.24,88.49v-3.61v-3.61h-3.61v3.61h-3.61v-3.61h3.61v-3.61h3.61v3.61h3.61v3.61h3.61v-3.61
		h3.61v3.61h3.61v-3.61v-3.61v-3.61h-3.61v3.61h-3.61h-3.61v-3.61h3.61v-3.61h-3.61h-3.61v3.61h-3.61v-3.61v-3.61h3.61v-3.61h-3.61
		h-3.61h-3.61H74.8h-3.61v3.61h3.61h3.61v3.61v3.61H74.8v3.61h-3.61h-3.61v-3.61h-3.61v-3.61h-3.61v3.61v3.61v3.61h3.61h3.61h3.61
		h3.61v3.61h-3.61h-3.61v3.61v3.61h3.61v-3.61h3.61h3.61h3.61h3.61H89.24z M71.19,92.1v3.61h3.61V92.1H71.19z M67.58,92.1h-3.61
		h-3.61v3.61h3.61h3.61V92.1z M60.35,81.27h-3.61v3.61h3.61V81.27z M60.35,84.88v3.61h3.61v-3.61H60.35z M56.74,84.88h-3.61v3.61
		v3.61v3.61h3.61V92.1v-3.61V84.88z M60.35,70.44v-3.61h3.61h3.61v-3.61h-3.61h-3.61h-3.61h-3.61h-3.61v3.61h3.61h3.61v3.61H60.35z
		 M56.74,70.44h-3.61v3.61h-3.61v3.61h3.61h3.61v-3.61V70.44z M67.58,66.83v3.61h3.61v-3.61H67.58z M71.19,70.44v3.61h3.61v-3.61
		H71.19z M103.69,74.05h3.61v-3.61h-3.61V74.05z M100.07,84.88h-3.61v3.61h3.61V84.88z M125.35,63.22v3.61h3.61v-3.61H125.35z
		 M110.91,95.72h3.61h3.61h3.61v3.61v3.61v3.61h-3.61h-3.61h-3.61v-3.61v-3.61V95.72z M49.52,99.33v3.61v3.61v3.61v3.61v3.61v3.61
		v3.61h3.61h3.61h3.61h3.61h3.61h3.61h3.61v-3.61v-3.61v-3.61v-3.61v-3.61v-3.61v-3.61h-3.61h-3.61h-3.61h-3.61h-3.61h-3.61H49.52z
		 M114.52,99.33v3.61h3.61v-3.61H114.52z M53.13,102.94h3.61h3.61h3.61h3.61h3.61v3.61v3.61v3.61v3.61v3.61h-3.61h-3.61h-3.61h-3.61
		h-3.61v-3.61v-3.61v-3.61v-3.61V102.94z M56.74,106.55v3.61v3.61v3.61h3.61h3.61h3.61v-3.61v-3.61v-3.61h-3.61h-3.61H56.74z
		 M89.24,110.16v3.61h3.61v-3.61H89.24z M125.35,110.16h3.61v3.61v3.61h3.61v-3.61h3.61v3.61v3.61h-3.61h-3.61v-3.61h-3.61h-3.61
		v-3.61h3.61V110.16z"/>
</g>
</svg>
