<?xml version="1.0" encoding="utf-8"?>
<!-- Generator: Adobe Illustrator 27.1.1, SVG Export Plug-In . SVG Version: 6.00 Build 0)  -->
<svg version="1.1"
	 id="svg2" xmlns:ns1="http://sozi.baierouge.fr" xmlns:svg="http://www.w3.org/2000/svg" xmlns:dc="http://purl.org/dc/elements/1.1/" xmlns:cc="http://creativecommons.org/ns#" xmlns:sodipodi="http://sodipodi.sourceforge.net/DTD/sodipodi-0.dtd" xmlns:rdf="http://www.w3.org/1999/02/22-rdf-syntax-ns#" xmlns:inkscape="http://www.inkscape.org/namespaces/inkscape"
	 xmlns="http://www.w3.org/2000/svg" xmlns:xlink="http://www.w3.org/1999/xlink" x="0px" y="0px" viewBox="0 0 300 300"
	 style="enable-background:new 0 0 300 300;" xml:space="preserve">
<sodipodi:namedview  bordercolor="#666666" borderopacity="1" fit-margin-bottom="0" fit-margin-left="0" fit-margin-right="0" fit-margin-top="0" gridtolerance="10" guidetolerance="10" id="namedview679" inkscape:bbox-nodes="true" inkscape:bbox-paths="true" inkscape:current-layer="svg2" inkscape:cx="-105.04499" inkscape:cy="207.11817" inkscape:object-nodes="true" inkscape:object-paths="true" inkscape:pageopacity="0" inkscape:pageshadow="2" inkscape:snap-bbox="true" inkscape:snap-bbox-edge-midpoints="true" inkscape:snap-bbox-midpoints="true" inkscape:snap-center="true" inkscape:snap-intersection-paths="true" inkscape:snap-midpoints="true" inkscape:snap-object-midpoints="true" inkscape:snap-page="true" inkscape:snap-smooth-nodes="true" inkscape:window-height="1018" inkscape:window-maximized="1" inkscape:window-width="1920" inkscape:window-x="-8" inkscape:window-y="-8" inkscape:zoom="1.1919192" objecttolerance="10" pagecolor="#ffffff" showgrid="false">
	</sodipodi:namedview>
<path id="use13-7" inkscape:connector-curvature="0" d="M0,0v12v12v12v12v12v12v12h12h12h12h12h12h12h12V72V60V48V36V24V12V0H72H60
	H48H36H24H12H0z M108,0v12H96v12h12v12H96v12h12h12V36h12v12h12V36V24h12V12h-12h-12v12h-12V12V0H108z M156,12h12V0h-12V12z M144,48
	v12h12V48H144z M156,48h12v12h12V48V36h12h12V24h-12V12h-12v12h-12v12h-12V48z M192,12h12V0h-12V12z M180,60v12h12v12h12V72V60V48
	h-12v12H180z M180,72h-12v12h12V72z M132,48h-12v12v12v12h12V72V60V48z M216,0v12v12v12v12v12v12v12h12h12h12h12h12h12h12V72V60V48
	V36V24V12V0h-12h-12h-12h-12h-12h-12H216z M12,12h12h12h12h12h12v12v12v12v12v12H60H48H36H24H12V60V48V36V24V12z M228,12h12h12h12
	h12h12v12v12v12v12v12h-12h-12h-12h-12h-12V60V48V36V24V12z M24,24v12v12v12h12h12h12V48V36V24H48H36H24z M240,24v12v12v12h12h12h12
	V48V36V24h-12h-12H240z M96,60v12v12h12V72V60H96z M144,72v12v12v12h12h12h12h12V96h-12h-12h-12V84V72H144z M192,108v12h12v12h-12
	v12h12h12v-12h12v12h-12v12h12v12v12v12h-12h-12v-12h12v-12h-12v-12h-12v12h-12v12v12h-12h-12h-12v12h12h12v12v12h12v-12h12v12v12
	h-12v12v12h-12v-12v-12h-12v12v12v12h12h12h12v-12v-12h12v12h12h12v12v12v12h12h12h12h12h12h12v-12v-12v-12v-12h-12h-12v-12h-12v-12
	h12h12h12v-12h-12h-12v-12v-12h-12v12h-12v-12h-12v-12h12v12h12v-12v-12v-12h-12v12h-12v-12h12v-12h-12v-12h12h12v-12h-12h-12v-12
	V96h-12v12v12h-12v-12V96h-12v12H192z M264,156h12v12v12h12v12h12v-12v-12h-12v-12h12v-12v-12v-12h-12v-12V96h-12v12v12v12h12v12
	h-12h-12V156z M192,276v12h12v12h12v-12v-12h-12H192z M156,240v-12v-12h-12v12h-12v-12h-12v12v12h12h12H156z M120,240h-12H96v12v12
	v12v12v12h12h12h12h12h12h12h12v-12h-12h-12h-12v-12h-12v12h-12h-12v-12h12v-12v-12V240z M120,216v-12v-12h-12v12H96v12v12h12v-12
	H120z M132,216h12v-12h-12V216z M144,192v-12h-12v12H144z M132,180v-12v-12h-12v12h-12v-12h12v-12h12v12h12v12h12v-12h12v12h12v-12
	v-12v-12h-12v12h-12h-12v-12h12v-12h-12h-12v12h-12v-12v-12h12V96h-12h-12H96H84H72v12h12h12v12v12H84v12H72H60v-12H48v-12H36v12v12
	v12h12h12h12h12v12H72H60v12v12h12v-12h12h12h12h12H132z M72,192v12h12v-12H72z M60,192H48H36v12h12h12V192z M36,156H24v12h12V156z
	 M36,168v12h12v-12H36z M24,168H12v12v12v12h12v-12v-12V168z M36,120v-12h12h12V96H48H36H24H12H0v12h12h12v12H36z M24,120H12v12H0
	v12h12h12v-12V120z M60,108v12h12v-12H60z M72,120v12h12v-12H72z M180,132h12v-12h-12V132z M168,168h-12v12h12V168z M252,96v12h12
	V96H252z M204,204h12h12h12v12v12v12h-12h-12h-12v-12v-12V204z M0,216v12v12v12v12v12v12v12h12h12h12h12h12h12h12v-12v-12v-12v-12
	v-12v-12v-12H72H60H48H36H24H12H0z M216,216v12h12v-12H216z M12,228h12h12h12h12h12v12v12v12v12v12H60H48H36H24H12v-12v-12v-12v-12
	V228z M24,240v12v12v12h12h12h12v-12v-12v-12H48H36H24z M132,252v12h12v-12H132z M252,252h12v12v12h12v-12h12v12v12h-12h-12v-12h-12
	h-12v-12h12V252z"/>
</svg>
