<?xml version="1.0" encoding="utf-8"?>
<!-- Generator: Adobe Illustrator 27.1.1, SVG Export Plug-In . SVG Version: 6.00 Build 0)  -->
<svg version="1.1" id="Layer_1" xmlns="http://www.w3.org/2000/svg" xmlns:xlink="http://www.w3.org/1999/xlink" x="0px" y="0px"
	 viewBox="0 0 1600 217.46" style="enable-background:new 0 0 1600 217.46;" xml:space="preserve">
<style type="text/css">
	.st0{fill:#0A5E73;}
	.st1{fill:none;stroke:#0A5E73;stroke-width:4.8427;stroke-miterlimit:10;}
	.st2{fill:#CA8901;}
	.st3{fill:#FFFFFF;}
	.st4{fill:none;}
</style>
<g>
	<path class="st3" d="M0.5,0c533,0,1066,0,1599,0c0,64.81,0,129.61,0,194.42c-3.93,4.82-9.61,5.52-15.1,6.94
		c-8.74,2.26-17.25,3.45-25.6-1.46c-1.64-0.97-3.92-1.76-5.68-1.43c-9.86,1.86-17.45-1.21-23.53-9.39
		c-4.35-5.85-10.5-7.37-17.47-5.22c-1.88,0.58-3.84,0.94-5.79,1.26c-4.67,0.77-9.42,1.18-14.02,2.26
		c-3.71,0.87-7.18,2.75-10.87,3.73c-3.71,0.99-7.69,0.89-9.61-3.15c-1.83-3.85-4.38-4.06-8.09-3.95
		c-5.18,0.15-11.48,0.97-15.41-1.55c-14.12-9.07-28.45-5.31-42.3-1.39c-6.11,1.73-11.33,2.82-17.22,0.99
		c-2.7-0.84-5.4-1.97-8.17-2.24c-1.83-0.18-4.7,0.3-5.53,1.57c-5.67,8.54-18.15,9.23-25.18,4.19c-6.21-4.45-11.17-3.02-16.94-0.94
		c-2.98,1.07-5.98,2.23-9.06,2.82c-1.99,0.38-4.61,0.52-6.15-0.49c-3.86-2.54-7.84-2.98-11.94-1.78c-6.36,1.86-12.74,3.8-18.84,6.37
		c-6.33,2.66-12.52,4.8-19.27,2.08c-5.26-2.12-10.32-1.85-15.54,0.29c-2.23,0.92-4.86,1.45-7.25,1.27
		c-8.49-0.65-15.85-3.74-22.17-10c-7.39-7.32-16.35-12.63-26.63-14.14c-11.96-1.77-24.08-2.57-36.15-3.47
		c-8.05-0.6-16.15,0.4-23.13-5.72c-3.98-3.49-8.3-2.12-12.39,1.33c-2.39,2.01-5.18,3.93-8.1,4.81c-6.85,2.07-13.9,3.42-20.83,5.21
		c-7.09,1.83-15.02,2.36-21,6.09c-10.04,6.26-21.1,8.94-31.84,12.86c-9.19,3.35-17.67,3.63-27.43-0.51
		c-7.37-3.12-16.81-1.28-25.33-1.35c-1.23-0.01-2.39,1.76-3.72,2.39c-2.94,1.39-5.98,3.67-8.97,3.65
		c-9.13-0.06-17.52,1.54-24.89,7.33c-0.88,0.69-2.15,0.88-3.24,1.3c-12.21,4.72-24.96,4.03-37.55,3.19
		c-18.92-1.27-37.78-3.6-56.7-4.87c-6.3-0.42-11.05-1.86-14.8-7.43c-5.24-7.78-6.6-7.57-12.22-0.13c-0.2,0.27-0.44,0.52-0.6,0.81
		c-2.81,4.94-7.14,6.53-12.58,6.69c-6.97,0.21-13.93,1.11-20.9,1.6c-17.92,1.27-35.83,2.79-53.77,3.6
		c-10.81,0.49-20.95-2.29-30.45-8.18c-3.87-2.4-9.1-2.61-13.77-3.54c-3.4-0.68-7.97,0.37-10.13-1.56
		c-6.26-5.57-13.03-5.76-20.45-4.64c-1.43,0.22-2.99-0.55-4.45-0.4c-3.06,0.3-6.62,0.01-9.03,1.53c-7.22,4.57-14.48,4.26-22.1,1.94
		c-7.01-2.14-14.05-4.15-21.02-6.39c-2.2-0.71-4.42-1.69-6.29-3.04c-8.53-6.15-18.27-8.78-28.32-10.73
		c-6.05-1.17-12.17-2.19-18.04-4c-4.22-1.3-8.49-3.22-12.01-5.87c-5.45-4.09-9.41-4.46-15-0.5c-2.37,1.68-5.17,3.26-7.96,3.72
		c-4.57,0.75-9.29,0.51-13.94,0.75c-8.3,0.41-16.63,0.55-24.89,1.37c-15.23,1.52-28.37,7.87-39.72,18.42
		c-8.36,7.77-18.03,9.63-29.01,6.01c-3.56-1.17-8.15-1.27-11.64-0.02c-7.6,2.71-14.16,1.02-21.21-1.88
		c-7.02-2.88-14.49-4.68-21.86-6.6c-1.74-0.46-4.27-0.14-5.68,0.89c-4.26,3.11-8.36,2.38-12.78,0.71
		c-3.74-1.42-7.71-2.23-11.39-3.78c-3.02-1.27-5.05-0.77-7.64,1.29c-8.32,6.64-21.68,5.97-27.25-1.39c-2.38-3.15-4.6-3.9-8.06-2.47
		c-2.3,0.94-4.75,1.63-7.19,2.06c-3.56,0.63-7.91,2.43-10.63,1.06c-6.48-3.26-13.3-4-20.12-5.17c-9.86-1.68-19.44-1.74-28.18,4.58
		c-2,1.44-4.98,1.87-7.54,2.01c-3.3,0.17-6.65-0.7-9.95-0.56c-1.72,0.07-3.98,0.89-4.97,2.19c-4.13,5.4-6.31,6.3-12.69,4.38
		c-8.18-2.46-15.75-7.72-24.94-5.56c-0.56,0.13-1.29-0.29-1.9-0.54c-8.66-3.49-15.62-1.08-21.1,6.35
		c-5.3,7.19-12.48,8.87-20.81,7.78c-2.02-0.26-4.59-0.06-6.2,1.02c-6.54,4.39-13.77,4.34-20.75,2.92
		c-6.35-1.29-13.14-3.13-18.33-6.79c-4.7-3.31-9.42-5.98-14.6-8.24c-5.22-2.28-9.1-1.44-13.58,2.34
		C30.43,200.04,17.51,208.65,0.5,209C0.5,139.36,0.5,69.68,0.5,0z"/>
</g>
</svg>
