<?xml version="1.0" encoding="utf-8"?>
<!-- Generator: Adobe Illustrator 27.1.1, SVG Export Plug-In . SVG Version: 6.00 Build 0)  -->
<svg version="1.1" id="Layer_1" xmlns="http://www.w3.org/2000/svg" xmlns:xlink="http://www.w3.org/1999/xlink" x="0px" y="0px"
	 viewBox="0 0 1041.22 1250.85" style="enable-background:new 0 0 1041.22 1250.85;" xml:space="preserve">
<style type="text/css">
	.st0{fill:#FFFFFF;}
</style>
<g>
	<path class="st0" d="M1019.41,625.38c0,168.69,0.01,337.37-0.01,506.06c0,19.48-0.08,38.97-0.16,58.45
		c-0.1,26.93-18.7,45.56-45.51,45.54c-111.38-0.07-222.77-0.12-334.15-0.26c-190.46-0.23-380.93-0.66-571.39-0.65
		c-26,0-41.58-15.53-45.87-31.78c-1.09-4.13-1.69-8.51-1.69-12.78c0.03-131.55,0.12-263.1,0.28-394.66
		c0.19-156.03,0.48-312.06,0.7-468.09c0.12-88.92,0.13-177.85,0.32-266.77c0.06-26.62,18.83-45.06,45.48-45.04
		c124.54,0.09,249.07,0.18,373.61,0.34c178.14,0.22,356.29,0.5,534.43,0.75c23.11,0.03,40.49,14.36,44.64,36.93
		c0.48,2.59,0.49,5.3,0.49,7.95c-0.1,128.89-0.23,257.78-0.33,386.66c-0.04,59.11-0.01,118.23-0.01,177.34
		C1019.97,625.38,1019.69,625.38,1019.41,625.38z M1016.43,626.42c0.25,0,0.5,0,0.75,0c0-79.93-0.05-159.86,0.01-239.79
		c0.08-108.41,0.26-216.81,0.37-325.22c0.02-21.64-13.71-38.26-35.04-41.08c-10.16-1.34-20.59-0.79-30.89-0.81
		c-187.3-0.27-374.61-0.5-561.91-0.73c-107.39-0.13-214.78-0.26-322.16-0.35c-24.96-0.02-42.23,16.8-42.39,41.75
		c-0.3,47.96-0.38,95.91-0.42,143.87c-0.15,164.03-0.21,328.05-0.36,492.08c-0.06,61.94-0.32,123.89-0.41,185.83
		c-0.16,103.24-0.28,206.49-0.34,309.73c0,8.92,3.04,16.97,8.59,23.97c9.48,11.97,22.26,15.73,37.06,15.74
		c207.12,0.15,414.23,0.47,621.35,0.72c94.24,0.11,188.47,0.19,282.71,0.26c25.51,0.02,42.61-17.03,42.68-42.48
		c0.14-49.96,0.36-99.91,0.38-149.87C1016.46,902.18,1016.43,764.3,1016.43,626.42z"/>
	<path class="st0" d="M1006.35,626.48c0,185.68,0,371.36-0.01,557.04c0,22.81-14.22,36.93-37.18,36.92
		c-140.69-0.11-281.38-0.19-422.08-0.36c-158.34-0.2-316.67-0.49-475.01-0.74c-23.65-0.04-37.56-13.87-37.53-37.48
		c0.11-124.73,0.21-249.46,0.36-374.19c0.24-212.32,0.51-424.64,0.78-636.97c0.04-33.47,0.46-66.95,0.1-100.41
		c-0.26-24.31,18.52-37.2,37.23-37.12c113.39,0.5,226.77,0.32,340.16,0.46c185.81,0.23,371.62,0.66,557.43,0.67
		c22.42,0,37.28,16.86,37.2,37.16c-0.5,130.22-0.4,260.45-0.48,390.68c-0.03,54.79-0.01,109.57-0.01,164.36
		C1007,626.48,1006.68,626.48,1006.35,626.48z"/>
</g>
</svg>
